# xmcd
#
# Track frame offsets:
#	150
#	17850
#	39132
#	73590
#	88035
#	114487
#	129325
#	149175
#	166330
#	174027
#	186520
#	202650
#	230335
#
# Disc length: 3314 seconds
#
# Revision: 0
# Processed by: cddbd v1.4PL0 Copyright (c) Steve Scherf et al.
# Submitted via: dBpowerAMP V4.0
#
DISCID=a90cf00d
DTITLE=Turning Blue - Years And Years
DYEAR=1996
DGENRE=Blues
TTITLE0=Mid-Life Crisis
TTITLE1=Take My Time
TTITLE2=Pack Up Your Bags
TTITLE3=Steppin' Out Tonight
TTITLE4=Red Hot
TTITLE5=Boogie Some More
TTITLE6=Long Way There
TTITLE7=Merrijig Road
TTITLE8=One Moment Please
TTITLE9=Years And Years
TTITLE10=You Make Me Feel
TTITLE11=Down By The River
TTITLE12=Time To Go Home
EXTD=Band comes from Geelong, Victoria, Australia
EXTT0=
EXTT1=
EXTT2=
EXTT3=
EXTT4=
EXTT5=
EXTT6=
EXTT7=
EXTT8=
EXTT9=
EXTT10=
EXTT11=
EXTT12=
PLAYORDER=
